<svg xmlns="http://www.w3.org/2000/svg" width="46" height="27.415" viewBox="0 0 46 27.415">
  <path id="list_FILL0_wght400_GRAD200_opsz48" d="M7.746,40.315a2.191,2.191,0,0,1-1.7-.71A2.355,2.355,0,0,1,5.4,37.968,2.323,2.323,0,0,1,6.048,36.3a2.24,2.24,0,0,1,1.7-.679,2.217,2.217,0,0,1,1.667.71,2.3,2.3,0,0,1,.679,1.636,2.217,2.217,0,0,1-.71,1.667A2.3,2.3,0,0,1,7.746,40.315Zm0-11.361a2.191,2.191,0,0,1-1.7-.71A2.355,2.355,0,0,1,5.4,26.607a2.323,2.323,0,0,1,.648-1.667,2.24,2.24,0,0,1,1.7-.679,2.217,2.217,0,0,1,1.667.71,2.3,2.3,0,0,1,.679,1.636,2.217,2.217,0,0,1-.71,1.667,2.3,2.3,0,0,1-1.636.679Zm0-11.361a2.191,2.191,0,0,1-1.7-.71A2.355,2.355,0,0,1,5.4,15.246a2.323,2.323,0,0,1,.648-1.667,2.24,2.24,0,0,1,1.7-.679,2.217,2.217,0,0,1,1.667.71,2.3,2.3,0,0,1,.679,1.636,2.217,2.217,0,0,1-.71,1.667,2.3,2.3,0,0,1-1.636.679Zm9.015,22.6V35.684H51.4v4.507Zm0-11.361V24.323H51.4V28.83Zm0-11.3V13.023H51.4v4.507Z" transform="translate(-5.4 -12.9)" fill="#e09f0d"/>
</svg>
