<svg xmlns="http://www.w3.org/2000/svg" width="58.835" height="48.142" viewBox="0 0 58.835 48.142">
  <g id="Group_1" data-name="Group 1" transform="translate(-34.582 -76.468)">
    <path id="Union_1" data-name="Union 1" d="M25.02,48.139,9.537,46.783a1.548,1.548,0,0,1-1.424-1.542V35.009a2.372,2.372,0,0,0-.867-1.787A20.529,20.529,0,0,1,0,17.874a17.966,17.966,0,0,1,35.858-1.541,3.511,3.511,0,0,0,.434,1.356l4.645,6.965a1.991,1.991,0,0,1-1.673,3.082H36.6a.553.553,0,0,0-.557.554V35.5a3.032,3.032,0,0,1-3.035,3.021H27.621a.844.844,0,0,0-.866.863V46.6a1.571,1.571,0,0,1-1.617,1.546C25.1,48.142,25.059,48.141,25.02,48.139Zm27.312-2.1-.124-.123a1.53,1.53,0,0,1-.186-2.1,15.726,15.726,0,0,0,3.716-10.232A16.068,16.068,0,0,0,52.022,23.36a1.453,1.453,0,0,1,.186-2.033l.124-.124a1.491,1.491,0,0,1,2.106.185,19.286,19.286,0,0,1,4.4,12.267,18.9,18.9,0,0,1-4.4,12.2,1.6,1.6,0,0,1-1.178.539A1.376,1.376,0,0,1,52.332,46.043Zm-4.15-3.513-.062-.062a1.451,1.451,0,0,1-.186-2.034,10.721,10.721,0,0,0,0-13.56,1.451,1.451,0,0,1,.186-2.034l.062-.062a1.486,1.486,0,0,1,2.106.186,12.99,12.99,0,0,1,3.1,8.69,13.655,13.655,0,0,1-3.1,8.691,1.488,1.488,0,0,1-1.157.539A1.413,1.413,0,0,1,48.182,42.529ZM44.1,39.015a1.453,1.453,0,0,1-.186-2.033,5.665,5.665,0,0,0,1.115-3.329,5.272,5.272,0,0,0-1.115-3.329,1.449,1.449,0,0,1,.186-2.034,1.435,1.435,0,0,1,2.106.186h0a8.363,8.363,0,0,1,0,10.355,1.377,1.377,0,0,1-1.123.56A1.473,1.473,0,0,1,44.1,39.015Z" transform="translate(34.582 76.468)" fill="#f5b31f"/>
  </g>
</svg>
