<svg xmlns="http://www.w3.org/2000/svg" width="46" height="37.122" viewBox="0 0 46 37.122">
  <path id="video_camera_front_FILL0_wght600_GRAD0_opsz48" d="M7.684,44.372a4.211,4.211,0,0,1-3.08-1.3,4.211,4.211,0,0,1-1.3-3.08v-28.3A4.275,4.275,0,0,1,4.6,8.554a4.211,4.211,0,0,1,3.08-1.3h28.3a4.452,4.452,0,0,1,4.439,4.439V23.342L49.3,14.464V37.158L40.422,28.28V39.988a4.211,4.211,0,0,1-1.3,3.08,4.275,4.275,0,0,1-3.135,1.3Zm0-4.384h28.3v-28.3H7.684Zm4.495-4.828h19.31V33.829A4.4,4.4,0,0,0,28.1,29.2a21.708,21.708,0,0,0-6.27-1.027,21.708,21.708,0,0,0-6.27,1.027,4.4,4.4,0,0,0-3.385,4.633Zm9.655-10.043a4.451,4.451,0,0,0,3.329-1.3,4.526,4.526,0,0,0,1.276-3.3,4.379,4.379,0,0,0-4.606-4.606,4.379,4.379,0,0,0-4.606,4.606,4.526,4.526,0,0,0,1.276,3.3A4.451,4.451,0,0,0,21.833,25.117ZM7.684,39.988v0Z" transform="translate(-3.3 -7.25)" fill="#e09f0d"/>
</svg>
