<svg xmlns="http://www.w3.org/2000/svg" width="46" height="41.3" viewBox="0 0 46 41.3">
  <path id="record_voice_over_FILL0_wght700_GRAD200_opsz48" d="M41.05,30.6,38.45,28a19.519,19.519,0,0,0,3.65-5.225A15.634,15.634,0,0,0,43.4,16.1a15.889,15.889,0,0,0-1.225-6.625A19.2,19.2,0,0,0,38.65,4.35L41.2,1.8a25,25,0,0,1,4.25,6.425A18.919,18.919,0,0,1,47,16.1a19.3,19.3,0,0,1-1.6,8.1,23.4,23.4,0,0,1-4.35,6.4Zm-7.2-7.5-2.5-2.65a6.009,6.009,0,0,0,1.225-1.925A6.407,6.407,0,0,0,33,16.15a5.837,5.837,0,0,0-.425-2.3A8.552,8.552,0,0,0,31.4,11.9l2.55-2.55a8.834,8.834,0,0,1,1.95,3.125,10.605,10.605,0,0,1,.65,3.675,10.454,10.454,0,0,1-.7,3.775,9.347,9.347,0,0,1-2,3.175ZM18.2,24.8a8.272,8.272,0,0,1-8.7-8.65,8.475,8.475,0,0,1,2.4-6.225A8.344,8.344,0,0,1,18.1,7.5a8.56,8.56,0,0,1,6.25,2.4,8.361,8.361,0,0,1,2.45,6.25,8.574,8.574,0,0,1-2.35,6.225A8.3,8.3,0,0,1,18.2,24.8ZM1,43.1V37.2a6.38,6.38,0,0,1,1.25-4.05,7.506,7.506,0,0,1,2.8-2.3,31.779,31.779,0,0,1,6.275-2.175,28.506,28.506,0,0,1,6.825-.925,29.08,29.08,0,0,1,6.775.9,33.188,33.188,0,0,1,6.275,2.1A8.534,8.534,0,0,1,34,33.125,6.317,6.317,0,0,1,35.3,37.2v5.9Zm4.55-4.6H30.7V37.35a2.3,2.3,0,0,0-.45-1.375A5.019,5.019,0,0,0,29,34.8a17.746,17.746,0,0,0-5.4-1.925,29.4,29.4,0,0,0-5.5-.575,25.215,25.215,0,0,0-5.5.675A26.475,26.475,0,0,0,7.15,34.8a3.714,3.714,0,0,0-1.125,1.1,2.549,2.549,0,0,0-.475,1.45Zm12.6-18.3a3.978,3.978,0,0,0,2.9-1.125A3.91,3.91,0,0,0,22.2,16.15a4.016,4.016,0,0,0-1.15-2.925,3.888,3.888,0,0,0-2.9-1.175,4.016,4.016,0,0,0-2.925,1.15,3.949,3.949,0,0,0-1.175,2.95,3.867,3.867,0,0,0,1.175,2.925A4.064,4.064,0,0,0,18.15,20.2ZM18.15,16.15ZM18.15,38.5Z" transform="translate(-1 -1.8)" fill="#e09f0d"/>
</svg>
